<svg width="181" height="40" viewBox="0 0 181 40" fill="none" xmlns="http://www.w3.org/2000/svg">
<path d="M12.4447 5.06888C12.8583 5.07763 13.2647 4.98472 13.6784 5.0029C16.0928 4.9551 18.5438 5.49708 20.6558 6.72781C21.7148 7.32635 22.6684 8.10195 23.55 8.9469C25.4958 10.8354 26.9271 13.2949 27.5476 15.9785C27.7937 16.9568 27.8997 17.964 27.9756 18.9685C27.9684 19.7293 28.0234 20.4961 27.918 21.2515C27.7577 23.4397 27.0613 25.582 25.9225 27.4375C25.8649 27.5197 25.8034 27.5991 25.7445 27.6806C24.4643 27.1487 23.3006 26.3603 22.2057 25.5052C22.6638 24.7189 23.0899 23.9056 23.351 23.0249C23.5637 22.3651 23.6868 21.6791 23.7817 20.993C23.7725 20.5837 23.8851 20.1864 23.8569 19.7771C23.9446 17.1096 22.9904 14.395 21.1761 12.4694C20.504 11.7012 19.7382 11.0111 18.8776 10.4732C17.7408 9.75684 16.4488 9.30575 15.1235 9.15965C14.5377 9.07482 13.9434 9.10377 13.3537 9.1031C11.7483 9.19668 10.169 9.72452 8.80768 10.6038C7.99808 11.1081 7.31806 11.7975 6.67798 12.5071C5.4999 13.8584 4.71321 15.5463 4.33688 17.3136C4.10978 18.378 4.05087 19.4701 4.10585 20.5567C4.00768 20.6052 3.90885 20.651 3.80806 20.6921C2.81128 21.0677 1.84002 21.5141 0.883161 21.9874C0.653436 22.0884 0.442037 22.2695 0.178934 22.2486C0.177625 21.7121 0.0146581 21.1896 0.0349471 20.651C0.0290568 19.4849 -0.0475181 18.3046 0.163226 17.152C0.573589 14.4125 1.81842 11.8285 3.62742 9.78175C5.61313 7.46638 8.33579 5.78928 11.3039 5.24864C11.6796 5.15775 12.0657 5.13688 12.4447 5.06888Z" fill="white"/>
<path d="M5.90131 22.0528C6.42097 21.9175 6.94718 21.7909 7.48386 21.7613C8.21165 21.6374 8.9558 21.7061 9.69078 21.6926C10.0265 21.6731 10.3512 21.7768 10.6856 21.7781C12.4383 22.0097 14.1537 22.5443 15.7369 23.3509C18.1847 24.624 20.2084 26.5671 22.4951 28.0981C23.5266 28.7882 24.6196 29.4197 25.8147 29.7503C26.5863 29.9711 27.3894 30.0041 28.1866 29.9826C28.2016 31.286 28.1918 32.5895 28.1918 33.8936C27.7422 33.8916 27.2919 33.8963 26.8429 33.8781C25.8494 33.7616 24.8677 33.5307 23.9324 33.1637C23.1005 32.8608 22.3197 32.4299 21.5461 31.9997C19.6913 33.2075 17.5695 33.9993 15.3809 34.2161C15.1793 34.2107 14.981 34.245 14.7827 34.2787C14.2833 34.2935 13.7833 34.2921 13.2839 34.2881C13.0215 34.2948 12.7682 34.2066 12.5051 34.2194C9.93425 33.9744 7.43935 32.9476 5.4111 31.3035C3.18323 29.5342 1.54898 27.0283 0.685059 24.2813C2.3612 23.3987 4.08184 22.5712 5.90131 22.0528ZM5.90458 25.7208C6.91707 27.2376 8.3288 28.461 9.93752 29.2628C11.5076 30.0452 13.2813 30.3677 15.017 30.2128C16.0347 30.0701 17.0393 29.7961 17.9851 29.3827C17.6382 29.0056 17.2449 28.6778 16.8404 28.3681C14.7617 26.7145 12.2511 25.5949 9.62468 25.3384C8.99114 25.3235 8.35563 25.3134 7.72209 25.3384C7.10884 25.4212 6.491 25.5087 5.90458 25.7208Z" fill="#0CAF60"/>
<path d="M49.4441 29.36C49.8041 29.36 50.1401 29.336 50.5001 29.312L52.7081 33.368H57.2441L54.3641 27.944C56.7881 26.408 58.3481 23.672 58.3481 20.36C58.3481 15.128 54.4361 11.408 49.4441 11.408C44.4761 11.408 40.5641 15.128 40.5641 20.36C40.5641 25.592 44.4761 29.36 49.4441 29.36ZM49.4441 25.304C46.7321 25.304 45.2201 23.072 45.2201 20.36C45.2201 17.648 46.7321 15.464 49.4441 15.464C52.1561 15.464 53.6681 17.648 53.6681 20.36C53.6681 23.072 52.1561 25.304 49.4441 25.304ZM68.0171 23.456C68.0171 24.92 67.0091 25.568 66.1931 25.568C65.0411 25.568 64.3451 24.872 64.3451 23.456V16.088H60.2411V24.224C60.2411 27.632 62.1851 29.24 64.7531 29.24C66.2651 29.24 67.6331 28.568 68.3531 27.608V29H72.1211V16.088H68.0171V23.456ZM79.4546 13.088C79.4546 11.72 78.3746 10.736 76.8146 10.736C75.2546 10.736 74.1746 11.72 74.1746 13.088C74.1746 14.432 75.2546 15.416 76.8146 15.416C78.3746 15.416 79.4546 14.432 79.4546 13.088ZM78.9026 29V16.088H74.7986V29H78.9026ZM87.2835 29.24C90.9555 29.24 93.4755 26.936 93.8355 23.24H89.4675C89.3715 24.704 88.5795 25.568 87.3075 25.568C85.8435 25.568 85.0275 24.488 85.0275 22.544C85.0275 20.648 85.8675 19.544 87.3075 19.544C88.5555 19.544 89.3955 20.432 89.4675 21.848H93.8355C93.4755 18.248 90.8355 15.848 87.2835 15.848C83.5635 15.848 80.7795 18.704 80.7795 22.544C80.7795 26.48 83.4435 29.24 87.2835 29.24ZM99.8088 29V23.12L103.985 29H109.217L103.769 22.208L108.545 16.088H103.817L99.8088 21.32V11.768H95.7048V29H99.8088Z" fill="white"/>
<path d="M115.267 13.088C115.267 11.72 114.187 10.736 112.627 10.736C111.067 10.736 109.987 11.72 109.987 13.088C109.987 14.432 111.067 15.416 112.627 15.416C114.187 15.416 115.267 14.432 115.267 13.088ZM114.715 29V16.088H110.611V29H114.715ZM121.512 22.208C121.512 20.264 122.424 19.544 123.432 19.544C124.68 19.544 125.256 20.432 125.256 22.064V29H129.36V20.696C129.36 17.552 127.56 15.848 125.016 15.848C123.384 15.848 122.184 16.52 121.176 17.648V16.088H117.408V29H121.512V22.208ZM143.878 16.088H139.702L137.062 24.344L134.47 16.088H130.006L134.686 29H139.246L143.878 16.088ZM150.474 29.216C153.69 29.216 155.97 27.56 156.762 24.608H152.658C152.298 25.544 151.53 26.024 150.378 26.024C149.058 26.024 148.29 25.208 148.074 23.576H156.834C157.578 19.328 154.722 15.848 150.45 15.848C146.61 15.848 143.826 18.656 143.826 22.52C143.826 26.528 146.49 29.216 150.474 29.216ZM150.354 18.872C151.578 18.872 152.394 19.712 152.442 21.008H148.122C148.41 19.568 149.13 18.872 150.354 18.872ZM170.27 24.608C170.27 22.76 168.95 21.536 166.454 21.08L163.718 20.576C162.902 20.432 162.494 20.264 162.494 19.712C162.494 19.136 163.118 18.872 164.078 18.872C165.206 18.872 165.998 19.496 166.094 20.528H170.03C169.79 17.648 167.438 15.848 164.054 15.848C160.67 15.848 158.558 17.6 158.558 20.096C158.558 22.184 159.998 23.48 162.254 23.888L164.798 24.344C165.686 24.512 166.118 24.752 166.118 25.328C166.118 26 165.278 26.216 164.342 26.216C162.926 26.216 161.942 25.52 161.942 24.44H158.006C158.27 27.416 160.382 29.24 164.27 29.24C168.158 29.24 170.27 27.464 170.27 24.608ZM180.564 24.968C180.108 25.256 179.46 25.424 178.788 25.424C177.66 25.424 177.132 24.848 177.132 23.6V19.664H180.66V16.088H177.132V12.296H173.028V16.088H170.628V19.664H173.028V24.56C173.028 27.512 174.732 29.24 177.636 29.24C178.788 29.24 179.652 29.048 180.564 28.544V24.968Z" fill="#0BA259"/>
</svg>
