<svg width="182" height="30" viewBox="0 0 182 30" fill="none" xmlns="http://www.w3.org/2000/svg">
<path d="M12.7901 0.0688796C13.2152 0.0776321 13.633 -0.015279 14.0581 0.00289922C16.5396 -0.0449028 19.0587 0.497078 21.2294 1.72781C22.3178 2.32635 23.2978 3.10195 24.2039 3.9469C26.2038 5.83542 27.6749 8.29486 28.3126 10.9785C28.5655 11.9568 28.6745 12.964 28.7525 13.9685C28.7451 14.7293 28.8016 15.4961 28.6933 16.2515C28.5285 18.4397 27.8128 20.582 26.6423 22.4375C26.5831 22.5197 26.5199 22.5991 26.4594 22.6806C25.1436 22.1487 23.9476 21.3603 22.8223 20.5052C23.2931 19.7189 23.731 18.9056 23.9994 18.0249C24.218 17.3651 24.3445 16.6791 24.442 15.993C24.4326 15.5837 24.5483 15.1864 24.5194 14.7771C24.6095 12.1096 23.6288 9.39498 21.7642 7.46944C21.0733 6.70124 20.2863 6.01114 19.4018 5.4732C18.2333 4.75684 16.9055 4.30575 15.5433 4.15965C14.9413 4.07482 14.3305 4.10377 13.7245 4.1031C12.0744 4.19668 10.4513 4.72452 9.05212 5.60381C8.22003 6.10809 7.52113 6.79751 6.86326 7.50714C5.65246 8.85839 4.84392 10.5463 4.45713 12.3136C4.22372 13.378 4.16318 14.4701 4.21968 15.5567C4.11878 15.6052 4.01721 15.651 3.91362 15.6921C2.88915 16.0677 1.89091 16.5141 0.907476 16.9874C0.67137 17.0884 0.454099 17.2695 0.183687 17.2486C0.182342 16.7121 0.0148482 16.1896 0.0357009 15.651C0.0296469 14.4849 -0.0490551 13.3046 0.167543 12.152C0.589305 9.41249 1.86872 6.82848 3.72796 4.78175C5.76883 2.46638 8.56712 0.789276 11.6177 0.248642C12.0038 0.157751 12.4006 0.13688 12.7901 0.0688796Z" fill="#111827"/>
<path d="M6.06483 17.0522C6.59892 16.9168 7.13975 16.7903 7.69133 16.7606C8.43934 16.6367 9.20416 16.7054 9.95956 16.692C10.3046 16.6724 10.6383 16.7761 10.982 16.7775C12.7834 17.0091 14.5465 17.5436 16.1737 18.3502C18.6894 19.6234 20.7693 21.5664 23.1196 23.0974C24.1797 23.7875 25.3031 24.419 26.5314 24.7496C27.3244 24.9705 28.1498 25.0034 28.9691 24.9819C28.9846 26.2853 28.9745 27.5888 28.9745 28.8929C28.5124 28.8909 28.0496 28.8956 27.5881 28.8774C26.567 28.7609 25.558 28.53 24.5968 28.1631C23.7418 27.8601 22.9393 27.4292 22.1442 26.999C20.2379 28.2068 18.0571 28.9986 15.8077 29.2154C15.6005 29.21 15.3967 29.2444 15.1929 29.278C14.6797 29.2928 14.1657 29.2915 13.6525 29.2874C13.3828 29.2942 13.1224 29.206 12.852 29.2188C10.2098 28.9737 7.64559 27.947 5.561 26.3028C3.27124 24.5335 1.5916 22.0276 0.703679 19.2807C2.42638 18.398 4.19481 17.5706 6.06483 17.0522ZM6.06819 20.7201C7.1088 22.237 8.55974 23.4603 10.2132 24.2622C11.8269 25.0445 13.6498 25.367 15.4337 25.2122C16.4797 25.0694 17.5123 24.7954 18.4843 24.382C18.1277 24.005 17.7235 23.6771 17.3078 23.3674C15.1714 21.7139 12.591 20.5942 9.89162 20.3377C9.24048 20.3229 8.58732 20.3128 7.93618 20.3377C7.3059 20.4205 6.6709 20.508 6.06819 20.7201Z" fill="#0CAF60"/>
<path d="M50.5521 24.36C50.9121 24.36 51.2481 24.336 51.6081 24.312L53.8161 28.368H58.3521L55.4721 22.944C57.8961 21.408 59.4561 18.672 59.4561 15.36C59.4561 10.128 55.5441 6.408 50.5521 6.408C45.5841 6.408 41.6721 10.128 41.6721 15.36C41.6721 20.592 45.5841 24.36 50.5521 24.36ZM50.5521 20.304C47.8401 20.304 46.3281 18.072 46.3281 15.36C46.3281 12.648 47.8401 10.464 50.5521 10.464C53.2641 10.464 54.7761 12.648 54.7761 15.36C54.7761 18.072 53.2641 20.304 50.5521 20.304Z" fill="#111827"/>
<path d="M69.1251 18.456C69.1251 19.92 68.1171 20.568 67.3011 20.568C66.1491 20.568 65.4531 19.872 65.4531 18.456V11.088H61.3491V19.224C61.3491 22.632 63.2931 24.24 65.8611 24.24C67.3731 24.24 68.7411 23.568 69.4611 22.608V24H73.2291V11.088H69.1251V18.456Z" fill="#111827"/>
<path d="M80.5626 8.088C80.5626 6.72 79.4826 5.736 77.9226 5.736C76.3626 5.736 75.2826 6.72 75.2826 8.088C75.2826 9.432 76.3626 10.416 77.9226 10.416C79.4826 10.416 80.5626 9.432 80.5626 8.088ZM80.0106 24V11.088H75.9066V24H80.0106Z" fill="#111827"/>
<path d="M88.3914 24.24C92.0634 24.24 94.5834 21.936 94.9434 18.24H90.5754C90.4794 19.704 89.6874 20.568 88.4154 20.568C86.9514 20.568 86.1354 19.488 86.1354 17.544C86.1354 15.648 86.9754 14.544 88.4154 14.544C89.6634 14.544 90.5034 15.432 90.5754 16.848H94.9434C94.5834 13.248 91.9434 10.848 88.3914 10.848C84.6714 10.848 81.8874 13.704 81.8874 17.544C81.8874 21.48 84.5514 24.24 88.3914 24.24Z" fill="#111827"/>
<path d="M100.917 24V18.12L105.093 24H110.325L104.877 17.208L109.653 11.088H104.925L100.917 16.32V6.768H96.8128V24H100.917Z" fill="#111827"/>
<path d="M116.375 8.088C116.375 6.72 115.295 5.736 113.735 5.736C112.175 5.736 111.095 6.72 111.095 8.088C111.095 9.432 112.175 10.416 113.735 10.416C115.295 10.416 116.375 9.432 116.375 8.088ZM115.823 24V11.088H111.719V24H115.823Z" fill="#0CAF60"/>
<path d="M122.62 17.208C122.62 15.264 123.532 14.544 124.54 14.544C125.788 14.544 126.364 15.432 126.364 17.064V24H130.468V15.696C130.468 12.552 128.668 10.848 126.124 10.848C124.492 10.848 123.292 11.52 122.284 12.648V11.088H118.516V24H122.62V17.208Z" fill="#0CAF60"/>
<path d="M144.986 11.088H140.81L138.17 19.344L135.578 11.088H131.114L135.794 24H140.354L144.986 11.088Z" fill="#0CAF60"/>
<path d="M151.582 24.216C154.798 24.216 157.078 22.56 157.87 19.608H153.766C153.406 20.544 152.638 21.024 151.486 21.024C150.166 21.024 149.398 20.208 149.182 18.576H157.942C158.686 14.328 155.83 10.848 151.558 10.848C147.718 10.848 144.934 13.656 144.934 17.52C144.934 21.528 147.598 24.216 151.582 24.216ZM151.462 13.872C152.686 13.872 153.502 14.712 153.55 16.008H149.23C149.518 14.568 150.238 13.872 151.462 13.872Z" fill="#0CAF60"/>
<path d="M171.378 19.608C171.378 17.76 170.058 16.536 167.562 16.08L164.826 15.576C164.01 15.432 163.602 15.264 163.602 14.712C163.602 14.136 164.226 13.872 165.186 13.872C166.314 13.872 167.106 14.496 167.202 15.528H171.138C170.898 12.648 168.546 10.848 165.162 10.848C161.778 10.848 159.666 12.6 159.666 15.096C159.666 17.184 161.106 18.48 163.362 18.888L165.906 19.344C166.794 19.512 167.226 19.752 167.226 20.328C167.226 21 166.386 21.216 165.45 21.216C164.034 21.216 163.05 20.52 163.05 19.44H159.114C159.378 22.416 161.49 24.24 165.378 24.24C169.266 24.24 171.378 22.464 171.378 19.608Z" fill="#0CAF60"/>
<path d="M181.672 19.968C181.216 20.256 180.568 20.424 179.896 20.424C178.768 20.424 178.24 19.848 178.24 18.6V14.664H181.768V11.088H178.24V7.296H174.136V11.088H171.736V14.664H174.136V19.56C174.136 22.512 175.84 24.24 178.744 24.24C179.896 24.24 180.76 24.048 181.672 23.544V19.968Z" fill="#0CAF60"/>
</svg>
