<svg width="29" height="30" viewBox="0 0 29 30" fill="none" xmlns="http://www.w3.org/2000/svg">
<path d="M12.7901 0.0688796C13.2152 0.0776321 13.633 -0.015279 14.0581 0.00289922C16.5396 -0.0449028 19.0587 0.497078 21.2294 1.72781C22.3178 2.32635 23.2978 3.10195 24.2039 3.9469C26.2038 5.83542 27.6749 8.29486 28.3126 10.9785C28.5655 11.9568 28.6745 12.964 28.7525 13.9685C28.7451 14.7293 28.8016 15.4961 28.6933 16.2515C28.5285 18.4397 27.8128 20.582 26.6423 22.4375C26.5831 22.5197 26.5199 22.5991 26.4594 22.6806C25.1436 22.1487 23.9476 21.3603 22.8223 20.5052C23.2931 19.7189 23.731 18.9056 23.9994 18.0249C24.218 17.3651 24.3445 16.6791 24.442 15.993C24.4326 15.5837 24.5483 15.1864 24.5194 14.7771C24.6095 12.1096 23.6288 9.39498 21.7642 7.46944C21.0733 6.70124 20.2863 6.01114 19.4018 5.4732C18.2333 4.75684 16.9055 4.30575 15.5433 4.15965C14.9413 4.07482 14.3305 4.10377 13.7245 4.1031C12.0744 4.19668 10.4513 4.72452 9.05212 5.60381C8.22003 6.10809 7.52113 6.79751 6.86326 7.50714C5.65246 8.85839 4.84392 10.5463 4.45713 12.3136C4.22372 13.378 4.16318 14.4701 4.21968 15.5567C4.11878 15.6052 4.01721 15.651 3.91362 15.6921C2.88915 16.0677 1.89091 16.5141 0.907476 16.9874C0.67137 17.0884 0.454099 17.2695 0.183687 17.2486C0.182342 16.7121 0.0148482 16.1896 0.0357009 15.651C0.0296469 14.4849 -0.0490551 13.3046 0.167543 12.152C0.589305 9.41249 1.86872 6.82848 3.72796 4.78175C5.76883 2.46638 8.56712 0.789276 11.6177 0.248642C12.0038 0.157751 12.4006 0.13688 12.7901 0.0688796Z" fill="#111827"/>
<path d="M6.06483 17.0522C6.59892 16.9168 7.13975 16.7903 7.69133 16.7606C8.43934 16.6367 9.20416 16.7054 9.95956 16.692C10.3046 16.6724 10.6383 16.7761 10.982 16.7775C12.7834 17.0091 14.5465 17.5436 16.1737 18.3502C18.6894 19.6234 20.7693 21.5664 23.1196 23.0974C24.1797 23.7875 25.3031 24.419 26.5314 24.7496C27.3244 24.9705 28.1498 25.0034 28.9691 24.9819C28.9846 26.2853 28.9745 27.5888 28.9745 28.8929C28.5124 28.8909 28.0496 28.8956 27.5881 28.8774C26.567 28.7609 25.558 28.53 24.5968 28.1631C23.7418 27.8601 22.9393 27.4292 22.1442 26.999C20.2379 28.2068 18.0571 28.9986 15.8077 29.2154C15.6005 29.21 15.3967 29.2444 15.1929 29.278C14.6797 29.2928 14.1657 29.2915 13.6525 29.2874C13.3828 29.2942 13.1224 29.206 12.852 29.2188C10.2098 28.9737 7.64559 27.947 5.561 26.3028C3.27124 24.5335 1.5916 22.0276 0.703679 19.2807C2.42638 18.398 4.19481 17.5706 6.06483 17.0522ZM6.06819 20.7201C7.1088 22.237 8.55974 23.4603 10.2132 24.2622C11.8269 25.0445 13.6498 25.367 15.4337 25.2122C16.4797 25.0694 17.5123 24.7954 18.4843 24.382C18.1277 24.005 17.7235 23.6771 17.3078 23.3674C15.1714 21.7139 12.591 20.5942 9.89162 20.3377C9.24048 20.3229 8.58732 20.3128 7.93618 20.3377C7.3059 20.4205 6.6709 20.508 6.06819 20.7201Z" fill="#0CAF60"/>
</svg>
