<svg xmlns="http://www.w3.org/2000/svg" xmlns:xlink="http://www.w3.org/1999/xlink" width="196.316" height="44.184" viewBox="0 0 196.316 44.184">
  <defs>
    <clipPath id="clip-path">
      <rect id="Rectangle_7096" data-name="Rectangle 7096" width="142.139" height="31.671" fill="#fff"/>
    </clipPath>
    <clipPath id="clip-path-2">
      <rect id="Rectangle_7097" data-name="Rectangle 7097" width="142.139" height="31.671" fill="none"/>
    </clipPath>
  </defs>
  <g id="Group_26197" data-name="Group 26197" transform="translate(-401.842 -53.408)">
    <g id="_000000ff" data-name="#000000ff" transform="translate(401.842 53.408)">
      <path id="Path_73500" data-name="Path 73500" d="M269.554,54.521l.152-.011a65.577,65.577,0,0,0,5.893,8.1,1.633,1.633,0,0,1-.508.363,54.3,54.3,0,0,0-5.451,3.737c-1.508-1.145-3.05-2.247-4.659-3.247a13.339,13.339,0,0,0-1.311-.766,4.851,4.851,0,0,1,.63-.827A67.857,67.857,0,0,0,269.554,54.521Z" transform="translate(-247.709 -54.51)" fill="#5dc1b9"/>
      <path id="Path_73501" data-name="Path 73501" d="M174.23,135.39c.049-.052.1-.1.152-.15,1.732.783,3.484,1.533,5.142,2.47a57.707,57.707,0,0,1,6.493,4.188,10.2,10.2,0,0,1-1.347,1.319q-1.271,1.238-2.509,2.51a17.56,17.56,0,0,1-1.211,1.278,2.44,2.44,0,0,1-.42-.495,52.758,52.758,0,0,1-5.52-9.387C174.743,136.549,174.522,135.954,174.23,135.39Z" transform="translate(-166.734 -127.599)" fill="#fff"/>
      <path id="Path_73502" data-name="Path 73502" d="M281.329,136.324c.939-.415,1.859-.889,2.833-1.214a50.315,50.315,0,0,1-5.744,10.485,14.641,14.641,0,0,1-1,1.319c-.323-.276-.557-.634-.856-.933q-.771-.792-1.546-1.578c-.132-.161-.371-.119-.547-.074-.67.5-1.317,1.032-1.973,1.549a.314.314,0,0,0-.115.47c1.011,1.015,1.98,2.072,2.92,3.152a53.587,53.587,0,0,1,6.489,9.379,44.518,44.518,0,0,1,2.374,5.082,48.434,48.434,0,0,1-8.883-4.631c-.247-.2-.478.08-.652.235-.66.662-1.445,1.182-2.1,1.846.921.676,1.9,1.263,2.88,1.853.076.074.316.148.221.282a69.458,69.458,0,0,0-5.9,8.12c-.848-1.264-1.648-2.562-2.552-3.788-1.088-1.5-2.219-2.975-3.416-4.392a3.952,3.952,0,0,1,.722-.5,56.089,56.089,0,0,0,8.8-6.638c.611-.585,1.213-1.179,1.829-1.758a10.077,10.077,0,0,0-.819-1.123,10.762,10.762,0,0,0-1.235-1.442c-1.07,1.077-2.188,2.1-3.33,3.1a11.558,11.558,0,0,1-1.1-.947c-.465-.385-.872-.834-1.324-1.233-.67-.591-1.231-1.287-1.869-1.91q-.664-.741-1.335-1.476c.3-.46.722-.821,1.065-1.246A53.244,53.244,0,0,1,281.329,136.324Z" transform="translate(-247.79 -127.482)" fill="#fff"/>
      <path id="Path_73503" data-name="Path 73503" d="M434.453,226.045c.225-.35.414-.723.666-1.055a6.766,6.766,0,0,1,.91.71,74.921,74.921,0,0,0,7.185,5.139c-.09.3-.42.395-.653.562a72.326,72.326,0,0,0-7.238,5.3l-.309.013a53,53,0,0,0-3.29-4.917,5.941,5.941,0,0,1-.655-.927A53.237,53.237,0,0,0,434.453,226.045Z" transform="translate(-399.265 -208.855)" fill="#5dc1b9"/>
      <path id="Path_73504" data-name="Path 73504" d="M102.46,226.3a.9.9,0,0,1,.643-.329,56.78,56.78,0,0,0,11.006,13.3.253.253,0,0,1-.042.437,52.091,52.091,0,0,1-9.862,5.8,6.862,6.862,0,0,1-1.6.608,2.8,2.8,0,0,1,.3-.858,49.956,49.956,0,0,1,4.4-8.122c-.682-.769-1.367-1.536-2.007-2.34a.445.445,0,0,0-.279-.184c-.671.981-1.3,1.988-1.917,3.006-.394.008-.621-.339-.909-.548a70,70,0,0,0-7.044-5.065c-.131-.062-.093-.231-.122-.345A73.078,73.078,0,0,0,102.46,226.3Z" transform="translate(-95.03 -209.738)" fill="#5dc1b9"/>
    </g>
    <g id="Group_26186" data-name="Group 26186" transform="translate(299.842 13.434)">
      <g id="Group_26191" data-name="Group 26191" transform="translate(156.177 46.231)">
        <g id="Group_26188" data-name="Group 26188" transform="translate(0 0)">
          <g id="Group_26187" data-name="Group 26187" clip-path="url(#clip-path)">
            <path id="Path_73505" data-name="Path 73505" d="M13.318,31.671A18.394,18.394,0,0,1,8.7,31.084a14.541,14.541,0,0,1-4.151-1.77,10.506,10.506,0,0,1-3.105-2.979A8.642,8.642,0,0,1,0,22.132H7.427a4.522,4.522,0,0,0,1.067,2.124,5.1,5.1,0,0,0,2.017,1.322,7.839,7.839,0,0,0,2.764.459A10.754,10.754,0,0,0,16.05,25.7a4.779,4.779,0,0,0,2.06-1.066,2.532,2.532,0,0,0,.779-1.943,2.123,2.123,0,0,0-.715-1.675,5.231,5.231,0,0,0-1.889-1,21.312,21.312,0,0,0-2.54-.629l-5.037-.96A9.955,9.955,0,0,1,3.073,15.6,8.452,8.452,0,0,1,.9,9.647,8.078,8.078,0,0,1,2.508,4.471a10.482,10.482,0,0,1,4.45-3.319A16.147,16.147,0,0,1,13.168,0a17.244,17.244,0,0,1,6.926,1.238,9.767,9.767,0,0,1,4.3,3.4,8.768,8.768,0,0,1,1.515,4.9H18.675a4.163,4.163,0,0,0-.854-2.262,3.906,3.906,0,0,0-1.846-1.227,8.57,8.57,0,0,0-2.657-.373,8.16,8.16,0,0,0-2.134.245,4.681,4.681,0,0,0-1.494.672,2.773,2.773,0,0,0-.886.992,2.577,2.577,0,0,0-.288,1.185A2.534,2.534,0,0,0,9.295,10.7a6.517,6.517,0,0,0,3,1.206l5.015.939a13.243,13.243,0,0,1,4.845,1.707A8.315,8.315,0,0,1,24.8,17.149a8.224,8.224,0,0,1,1.12,2.891,16.031,16.031,0,0,1,.245,2.647,7.125,7.125,0,0,1-1.654,4.589A11.02,11.02,0,0,1,19.966,30.5a17.578,17.578,0,0,1-6.648,1.174" transform="translate(0 0)" fill="#fff"/>
            <path id="Path_73506" data-name="Path 73506" d="M49.772,14.676H44.927l.021,10.884a1.873,1.873,0,0,0,.2.983.974.974,0,0,0,.566.426,3.177,3.177,0,0,0,.9.108h3.2v4.375a8.282,8.282,0,0,1-1.387.394,13.972,13.972,0,0,1-2.753.2,12.089,12.089,0,0,1-4.919-.8,4.718,4.718,0,0,1-2.412-2.2,7.221,7.221,0,0,1-.672-3.169v-11.2H34.085V9.7h3.842l1.857-6.766h5.144V9.662h4.845Z" transform="translate(-6.106 -0.527)" fill="#fff"/>
            <path id="Path_73507" data-name="Path 73507" d="M63.8,33.581a8.858,8.858,0,0,1-3.788-.8,6.478,6.478,0,0,1-2.732-2.336,6.673,6.673,0,0,1-1.014-3.756,6.357,6.357,0,0,1,2.785-5.549q2.785-1.943,8.718-1.964l2.241-.021V18.024a2.472,2.472,0,0,0-.736-1.954,3.372,3.372,0,0,0-2.316-.63,5.763,5.763,0,0,0-2.22.523,3.037,3.037,0,0,0-1.622,1.846H57.159a6.582,6.582,0,0,1,1.483-4.076,7.918,7.918,0,0,1,3.607-2.326A15.989,15.989,0,0,1,67.3,10.66a15.449,15.449,0,0,1,5.72.865,6,6,0,0,1,3.031,2.411,7.006,7.006,0,0,1,.918,3.639v15.58h-6.04l-.619-3.649a6.679,6.679,0,0,1-2.636,3.2,7.872,7.872,0,0,1-3.874.873m2.518-4.673a3.837,3.837,0,0,0,2.561-.972,3.721,3.721,0,0,0,.811-1.013,2.679,2.679,0,0,0,.32-1.194V22.719l-1.793.021a9.356,9.356,0,0,0-2.294.3,4.855,4.855,0,0,0-2,.992,2.381,2.381,0,0,0-.811,1.911,2.678,2.678,0,0,0,.95,2.177,3.41,3.41,0,0,0,2.252.789" transform="translate(-10.079 -1.91)" fill="#fff"/>
            <path id="Path_73508" data-name="Path 73508" d="M86.891,33.155V11.088h7v5.655a10.526,10.526,0,0,1,1.483-3.105,7.234,7.234,0,0,1,2.4-2.176,6.646,6.646,0,0,1,3.307-.8c.156,0,.295,0,.416.011a.407.407,0,0,1,.224.053v6.894a1.106,1.106,0,0,0-.267-.064,2.417,2.417,0,0,0-.331-.022,11.761,11.761,0,0,0-3.447.064,5.025,5.025,0,0,0-2.134.9,3.309,3.309,0,0,0-1.088,1.473,5.4,5.4,0,0,0-.309,1.858V33.155Z" transform="translate(-15.565 -1.91)" fill="#fff"/>
          </g>
        </g>
        <path id="Path_73509" data-name="Path 73509" d="M108.128,31.329h6.936V9.261h-6.936Zm-.022-24.544h6.979V.468h-6.979Z" transform="translate(-19.366 -0.084)" fill="#5dc1b9"/>
        <g id="Group_26190" data-name="Group 26190" transform="translate(0 0)">
          <g id="Group_26189" data-name="Group 26189" clip-path="url(#clip-path-2)">
            <path id="Path_73510" data-name="Path 73510" d="M130.956,33.581a13.533,13.533,0,0,1-4.5-.768,9.126,9.126,0,0,1-3.757-2.454,8.291,8.291,0,0,1-2.005-4.4h6.232a3.1,3.1,0,0,0,1,1.728,3.958,3.958,0,0,0,1.558.812,5.9,5.9,0,0,0,1.429.213,6.214,6.214,0,0,0,2.561-.447,1.451,1.451,0,0,0,.983-1.366,1.4,1.4,0,0,0-.609-1.205,5.336,5.336,0,0,0-2.1-.694l-3.586-.662a10.651,10.651,0,0,1-4.9-2.123,5.427,5.427,0,0,1-1.889-4.386,6.2,6.2,0,0,1,1.088-3.65,7.485,7.485,0,0,1,3.266-2.572,13.115,13.115,0,0,1,5.293-.95,11.235,11.235,0,0,1,6.829,1.878,6.148,6.148,0,0,1,2.562,5.186h-5.977a2.517,2.517,0,0,0-1.205-1.718,4.4,4.4,0,0,0-2.316-.587,5.147,5.147,0,0,0-2.294.459,1.47,1.47,0,0,0-.928,1.377,1.276,1.276,0,0,0,.812,1.131,9.972,9.972,0,0,0,2.582.768l3.224.662a10.327,10.327,0,0,1,3.223,1.313,7.061,7.061,0,0,1,1.91,1.781,6.15,6.15,0,0,1,.928,1.911,6.533,6.533,0,0,1,.255,1.675,5.993,5.993,0,0,1-1.258,3.862,7.8,7.8,0,0,1-3.447,2.4,14.03,14.03,0,0,1-4.962.821" transform="translate(-21.62 -1.91)" fill="#5dc1b9"/>
            <path id="Path_73511" data-name="Path 73511" d="M155.473,33.581a8.861,8.861,0,0,1-3.789-.8,6.483,6.483,0,0,1-2.732-2.336,6.673,6.673,0,0,1-1.014-3.756,6.357,6.357,0,0,1,2.785-5.549q2.785-1.943,8.719-1.964l2.24-.021V18.024a2.474,2.474,0,0,0-.736-1.954,3.376,3.376,0,0,0-2.316-.63,5.763,5.763,0,0,0-2.22.523,3.033,3.033,0,0,0-1.621,1.846h-5.955a6.581,6.581,0,0,1,1.482-4.076,7.927,7.927,0,0,1,3.607-2.326,15.992,15.992,0,0,1,5.047-.747,15.449,15.449,0,0,1,5.72.865,6,6,0,0,1,3.031,2.411,7,7,0,0,1,.919,3.639v15.58H162.6l-.619-3.649a6.678,6.678,0,0,1-2.636,3.2,7.869,7.869,0,0,1-3.873.873m2.518-4.673a3.837,3.837,0,0,0,2.561-.972,3.723,3.723,0,0,0,.811-1.013,2.679,2.679,0,0,0,.32-1.194V22.719l-1.793.021a9.345,9.345,0,0,0-2.294.3,4.858,4.858,0,0,0-2,.992,2.383,2.383,0,0,0-.81,1.911,2.677,2.677,0,0,0,.949,2.177,3.41,3.41,0,0,0,2.252.789" transform="translate(-26.501 -1.91)" fill="#5dc1b9"/>
          </g>
        </g>
      </g>
    </g>
  </g>
</svg>
