<svg width="28" height="28" viewBox="0 0 28 28" fill="none" xmlns="http://www.w3.org/2000/svg">
<path d="M27.7204 8.40179C27.7204 8.40179 27.4468 6.47227 26.6073 5.62258C25.5426 4.50736 24.3491 4.50183 23.8018 4.43655C19.8836 4.15332 14.0061 4.15332 14.0061 4.15332H13.9939C13.9939 4.15332 8.11655 4.15332 4.19822 4.43655C3.65087 4.50183 2.45783 4.50736 1.39271 5.62258C0.553204 6.47227 0.280017 8.40179 0.280017 8.40179C0.280017 8.40179 0 10.6676 0 12.9335V15.0578C0 17.3236 0.280023 19.5894 0.280023 19.5894C0.280023 19.5894 0.55321 21.519 1.39271 22.3687C2.45784 23.4839 3.85695 23.4486 4.4801 23.5655C6.72016 23.7803 14 23.8468 14 23.8468C14 23.8468 19.8836 23.8379 23.8018 23.5547C24.3491 23.4894 25.5426 23.4839 26.6073 22.3687C27.4468 21.519 27.7204 19.5894 27.7204 19.5894C27.7204 19.5894 28 17.3236 28 15.0578V12.9335C28 10.6676 27.7204 8.40179 27.7204 8.40179Z" fill="#DC2217"/>
<path d="M11.1093 17.6319L11.108 9.76465L18.6738 13.712L11.1093 17.6319Z" fill="white"/>
</svg>
